HIERARCHY
ROOT root
{
	OFFSET 0.000000 0.000000 0.000000
	CHANNELS 6 Xposition Yposition Zposition Zrotation Yrotation Xrotation
	JOINT lhip
	{
		OFFSET 0.058581 -0.082280 -0.017664
		CHANNELS 3 Zrotation Yrotation Xrotation
		JOINT lknee
		{
			OFFSET 0.043451 -0.386469 0.008037
			CHANNELS 3 Zrotation Yrotation Xrotation
			JOINT lankle
			{
				OFFSET -0.014790 -0.426874 -0.037428
				CHANNELS 3 Zrotation Yrotation Xrotation
				JOINT ltoe
				{
					OFFSET 0.041054 -0.060286 0.122042
					CHANNELS 3 Zrotation Yrotation Xrotation
					End Site
					{
						OFFSET 0.000000 0.000000 0.000000
					}
				}
			}
		}
	}
	JOINT rhip
	{
		OFFSET -0.060310 -0.090513 -0.013543
		CHANNELS 3 Zrotation Yrotation Xrotation
		JOINT rknee
		{
			OFFSET -0.043257 -0.383688 -0.004843
			CHANNELS 3 Zrotation Yrotation Xrotation
			JOINT rankle
			{
				OFFSET 0.019056 -0.420046 -0.034562
				CHANNELS 3 Zrotation Yrotation Xrotation
				JOINT rtoe
				{
					OFFSET -0.034840 -0.062106 0.130323
					CHANNELS 3 Zrotation Yrotation Xrotation
					End Site
					{
						OFFSET 0.000000 0.000000 0.000000
					}
				}
			}
		}
	}
	JOINT lowerback
	{
		OFFSET 0.004439 0.124404 -0.038385
		CHANNELS 3 Zrotation Yrotation Xrotation
		JOINT upperback
		{
			OFFSET 0.004488 0.137956 0.026820
			CHANNELS 3 Zrotation Yrotation Xrotation
			JOINT chest
			{
				OFFSET -0.002265 0.056032 0.002855
				CHANNELS 3 Zrotation Yrotation Xrotation
				JOINT lowerneck
				{
					OFFSET -0.013390 0.211636 -0.033468
					CHANNELS 3 Zrotation Yrotation Xrotation
					JOINT upperneck
					{
						OFFSET 0.010113 0.088937 0.050410
						CHANNELS 3 Zrotation Yrotation Xrotation
						End Site
						{
							OFFSET 0.000000 0.000000 0.000000
						}
					}
				}
				JOINT lclavicle
				{
					OFFSET 0.071702 0.114000 -0.018898
					CHANNELS 3 Zrotation Yrotation Xrotation
					JOINT lshoulder
					{
						OFFSET 0.122921 0.045205 -0.019046
						CHANNELS 3 Zrotation Yrotation Xrotation
						JOINT lelbow
						{
							OFFSET 0.255332 -0.015649 -0.022946
							CHANNELS 3 Zrotation Yrotation Xrotation
							JOINT lwrist
							{
								OFFSET 0.265709 0.012698 -0.007375
								CHANNELS 3 Zrotation Yrotation Xrotation
								End Site
								{
									OFFSET 0.000000 0.000000 0.000000
								}
							}
						}
					}
				}
				JOINT rclavicle
				{
					OFFSET -0.082954 0.112472 -0.023707
					CHANNELS 3 Zrotation Yrotation Xrotation
					JOINT rshoulder
					{
						OFFSET -0.113228 0.046853 -0.008472
						CHANNELS 3 Zrotation Yrotation Xrotation
						JOINT relbow
						{
							OFFSET -0.260127 -0.014369 -0.031269
							CHANNELS 3 Zrotation Yrotation Xrotation
							JOINT rwrist
							{
								OFFSET -0.269108 0.006794 -0.006027
								CHANNELS 3 Zrotation Yrotation Xrotation
								End Site
								{
									OFFSET 0.000000 0.000000 0.000000
								}
							}
						}
					}
				}
			}
		}
	}
}
MOTION
Frames: 14
Frame Time: 0.033333
-0.496565 -0.219089 0.994676 -176.037756 8.929449 97.008031 7.312731 3.955707 -18.017560 -5.097942 5.125079 12.938971 4.824241 6.763607 -9.421080 0.000000 -0.000000 0.000000 -3.143613 -5.188959 -4.743961 0.196005 -2.937006 15.552243 8.901366 2.010828 -5.087979 0.000000 -0.000000 0.000000 -4.435779 7.165047 24.603855 -2.222075 -1.444495 3.599216 -0.241471 0.866276 0.327591 3.387295 8.688251 -0.169909 5.158167 -3.503099 12.422740 -23.082811 -21.683069 -0.203119 -41.774253 -19.006257 14.645367 29.832853 -54.377083 -11.202342 26.323574 -8.906044 1.475980 26.983801 24.298910 6.960503 56.179467 29.581099 13.440831 -12.818866 30.710749 -17.458338 -11.260612 6.590766 -30.003672 
-0.495863 -0.227110 0.994347 -175.731955 8.790094 97.622023 7.051874 4.480638 -19.075144 -5.097149 5.434704 12.629126 4.643176 5.770389 -8.904148 0.000000 -0.000000 0.000000 -2.597143 -5.540691 -4.787482 -0.134253 -3.502092 13.743073 8.061652 1.547604 -6.291598 0.000000 -0.000000 0.000000 -4.679878 7.591367 25.370007 -1.800140 -1.916294 3.719756 0.111604 0.753642 0.328185 3.610396 8.476158 -0.621882 5.441361 -5.366837 11.893191 -22.061648 -23.887322 -0.723532 -41.615798 -22.969632 13.754089 22.463021 -49.670376 -3.932006 24.766534 -9.183634 3.782606 26.933533 25.771203 7.017700 56.597869 32.331511 13.256948 -13.501378 28.920303 -17.713854 -11.081851 6.368658 -29.169634 
-0.496173 -0.235221 0.994728 -175.914300 8.589113 98.121896 6.676549 4.324392 -20.020747 -4.809417 6.158596 12.440267 4.321272 5.482347 -8.609455 0.000000 -0.000000 0.000000 -2.249585 -5.917398 -4.827785 -0.255024 -4.481834 12.099843 7.179110 0.578720 -7.781523 0.000000 -0.000000 0.000000 -4.828957 8.075126 26.185903 -1.561742 -2.379145 3.561284 0.416531 0.708968 0.145670 3.699169 7.888657 -1.157250 5.815786 -7.811957 11.903585 -20.952876 -25.852184 -1.375215 -41.113878 -26.311716 12.887222 16.876481 -44.718877 -0.696839 22.272203 -9.726259 4.662354 26.911839 27.111069 7.118768 56.443930 34.633766 13.138877 -12.498084 27.362262 -16.896106 -9.871079 7.269014 -27.091799 
-0.496447 -0.243288 0.995444 -176.604511 8.536211 98.563077 6.554862 4.688462 -21.077178 -5.007016 6.320601 12.565833 4.012360 5.882975 -8.276091 0.000000 -0.000000 0.000000 -1.821888 -6.314249 -4.924218 -0.111307 -5.723142 10.986945 5.979920 -1.147475 -9.461138 0.000000 -0.000000 0.000000 -4.840032 8.402184 26.958901 -1.493648 -2.752215 2.728993 0.659177 0.531366 0.348356 3.760942 7.004073 -1.557807 6.198895 -10.433776 11.556527 -19.764370 -27.600949 -1.763977 -40.058729 -27.870175 12.380840 12.799642 -40.700594 0.443942 29.599262 -9.632501 4.472268 26.604157 29.125953 7.391923 56.377197 36.190377 13.830037 -10.991066 26.057477 -16.517729 -21.654071 5.717237 -25.126542 
-0.496009 -0.249404 0.995334 -178.120553 8.650919 98.474701 6.763865 4.800992 -21.334926 -4.982144 6.748478 12.636454 3.949720 6.822658 -8.373636 0.000000 -0.000000 0.000000 -1.350837 -6.864465 -4.392056 0.057593 -6.493435 10.484183 5.188096 -3.076850 -10.401381 0.000000 -0.000000 0.000000 -5.094126 8.607929 27.274723 -1.745450 -2.807240 2.956470 1.221561 0.273074 -0.177206 2.724205 4.888697 -2.255894 7.455939 -11.271901 11.771781 -20.078724 -26.831026 -0.641151 -37.736636 -29.401741 11.069852 12.512873 -40.188470 -0.311514 32.581144 -6.959608 2.142362 26.648836 29.838050 9.565608 55.965407 39.361426 14.158634 -10.453279 24.907196 -17.529382 -30.095945 4.747542 -28.901397 
-0.495422 -0.255684 0.994777 179.510887 8.667629 98.559529 7.135975 4.976756 -21.489434 -5.033628 8.634619 12.338632 3.777926 7.150488 -8.260324 0.000000 -0.000000 0.000000 -1.102481 -7.056052 -4.597854 -0.205176 -8.104806 11.637737 4.727619 -4.268238 -11.019277 0.000000 -0.000000 0.000000 -5.982514 9.303766 26.706135 -1.522785 -2.634433 3.834251 1.389895 0.379579 -0.868435 3.117880 3.813545 -2.871336 7.514037 -13.322946 10.984050 -19.958895 -25.403885 -0.276149 -36.960944 -29.195978 9.936452 14.899457 -42.406314 -4.184524 31.864970 -6.768661 1.007788 27.363225 29.422301 10.050646 56.281370 38.959067 14.849185 -13.132823 27.680607 -20.512792 -28.263059 5.909995 -29.294111 
-0.495538 -0.261103 0.993940 176.686921 8.521892 98.528957 7.306676 4.773988 -21.424652 -4.939412 10.595349 11.847546 4.190298 8.300433 -8.319606 0.000000 -0.000000 0.000000 -1.240885 -7.598600 -5.090878 -0.662580 -9.773743 14.026555 4.327953 -5.042860 -11.597255 0.000000 -0.000000 0.000000 -6.889492 9.964521 25.925539 -1.399285 -2.217737 4.223927 1.407235 0.927039 -0.816375 3.361828 2.823567 -3.299033 7.860500 -15.590120 9.530907 -21.027017 -23.250722 -0.047726 -36.083416 -29.110649 8.733417 17.057823 -46.663887 -7.593831 33.342440 -6.444461 0.850894 29.301174 26.932934 10.442450 54.798602 37.527585 15.156843 -12.754833 34.665402 -16.131148 -30.151024 7.112178 -26.124754 
-0.495851 -0.266006 0.993536 174.356599 8.384086 98.401726 7.420982 5.302367 -21.506057 -5.049199 11.862344 11.818016 4.116538 8.577830 -8.168217 0.000000 -0.000000 0.000000 -1.320785 -8.244115 -5.316148 -1.384506 -12.013325 16.574985 4.019246 -5.689360 -11.693014 0.000000 -0.000000 0.000000 -7.344646 10.085851 25.382184 -1.361005 -1.596336 4.081266 1.289760 1.256263 -0.492806 3.684564 1.676931 -3.408821 8.142376 -17.392023 8.616696 -22.447111 -20.638515 0.306419 -35.533971 -29.193246 7.686713 19.826456 -52.189479 -9.629143 33.718692 -6.342697 -0.048633 30.852405 23.650731 10.403797 53.554102 36.153961 15.572111 -10.890224 42.354824 -9.646704 -33.669003 7.805273 -24.864648 
-0.496270 -0.270075 0.993528 172.196396 8.322702 97.935803 7.702535 5.226972 -21.177304 -4.874086 13.297296 11.876385 4.295997 9.052594 -7.968064 0.000000 -0.000000 0.000000 -1.472738 -8.989500 -4.828103 -1.872095 -14.031526 18.627542 3.437790 -6.729814 -11.244530 0.000000 -0.000000 0.000000 -7.191941 10.126722 25.192547 -1.576998 -1.119672 3.755291 1.124793 1.374421 -0.354924 3.992542 -0.131933 -3.284943 8.379343 -18.186656 8.651040 -23.174417 -18.400964 0.479386 -35.643011 -28.308992 7.252552 22.988271 -58.475217 -12.048585 32.992538 -6.224539 -0.419536 30.524823 21.923000 10.016882 54.119893 33.499264 16.600078 -11.000094 49.515640 -8.159537 -35.856436 8.353030 -24.354411 
-0.496820 -0.273498 0.994198 170.203389 8.260202 97.335804 7.998747 4.731615 -20.414501 -4.822811 14.415470 11.388664 4.445328 10.039950 -7.587633 0.000000 -0.000000 0.000000 -1.989174 -9.564828 -3.962666 -1.748000 -16.567639 20.165462 3.033902 -7.607962 -10.789599 0.000000 -0.000000 0.000000 -6.910014 9.924254 25.233820 -1.791125 -0.836278 2.970760 1.007987 1.374163 -0.149415 4.424373 -1.742311 -3.221463 8.584591 -18.697596 9.217213 -23.590636 -16.361356 0.414651 -35.976482 -27.358463 7.549634 25.668201 -64.126843 -14.417535 32.955786 -6.238084 -1.651907 29.710607 20.727616 9.292999 55.122015 30.666208 17.974794 -11.303012 55.152311 -7.464506 -38.174129 8.797319 -23.954573 
-0.496624 -0.276513 0.995065 168.117276 8.371152 96.792595 8.588925 4.464627 -19.384551 -5.168096 15.483241 10.213763 4.860084 11.302133 -6.978978 0.000000 -0.000000 0.000000 -2.225409 -9.956243 -3.237816 -1.419243 -18.279103 20.897406 2.252680 -9.201557 -10.076395 0.000000 -0.000000 0.000000 -6.853419 9.605006 24.494947 -1.628794 -0.679557 2.511824 1.104858 1.559444 0.009259 4.593799 -3.487421 -2.888122 8.814302 -18.566902 9.518504 -23.770442 -14.796542 0.574486 -36.684812 -26.369779 8.175458 28.359785 -68.715181 -16.572430 33.117738 -5.506714 -2.673106 28.847444 19.847091 8.608122 55.677659 28.068866 18.784138 -11.672999 59.399920 -6.858785 -39.241832 8.970278 -23.726033 
-0.496776 -0.280290 0.996228 165.605862 8.432460 96.053209 8.829179 4.591098 -18.579639 -4.791975 16.577332 9.962815 5.045931 12.232408 -6.710228 0.000000 -0.000000 0.000000 -2.546943 -10.221094 -2.796061 -1.542750 -19.788941 21.175672 2.186565 -9.753319 -9.512987 0.000000 -0.000000 0.000000 -6.632585 9.336193 24.208243 -1.546221 -0.430454 1.476525 1.115992 1.600014 0.221026 4.684170 -4.407033 -3.362630 8.839230 -18.787746 10.494110 -22.807340 -13.515108 0.611975 -39.073013 -25.501650 9.603077 32.030817 -71.795096 -18.901853 33.676760 -4.688823 -3.265087 28.139934 18.414418 7.504213 56.593597 26.018502 19.018348 -11.891668 62.300755 -5.839134 -37.773741 9.463120 -23.039414 
-0.496701 -0.284596 0.997501 162.939825 8.519368 95.520297 9.240232 4.759073 -17.995430 -4.464534 18.209016 9.776194 4.970468 12.734472 -6.420503 0.000000 -0.000000 0.000000 -2.662168 -10.586806 -2.849457 -1.748048 -21.150238 20.401836 1.832033 -10.300335 -9.350735 0.000000 -0.000000 0.000000 -6.583715 9.097872 22.814977 -1.017045 -0.495737 1.441302 1.436822 1.852738 0.393025 4.368644 -4.337142 -3.551273 8.506520 -18.941281 10.845051 -22.297719 -13.008109 0.999246 -41.525045 -24.631688 10.866931 36.904281 -73.515808 -22.718552 33.957188 -4.377797 -3.709245 27.554315 16.980770 6.873470 56.867412 25.114152 18.310395 -10.974072 64.262713 -3.919345 -35.894455 9.549308 -23.039084 
-0.496400 -0.288746 0.998197 160.348462 8.519282 94.995674 9.583067 5.012267 -17.353397 -4.138578 19.883657 9.554186 4.868352 12.910508 -6.025944 0.000000 -0.000000 0.000000 -2.702950 -11.343589 -3.025341 -2.295772 -23.407446 18.815359 1.270241 -12.057959 -9.028292 0.000000 -0.000000 0.000000 -6.086722 8.953213 22.105903 -0.637339 -0.595473 0.442799 1.550824 1.545242 0.403191 3.996951 -4.974589 -3.754857 8.099226 -19.088603 11.911836 -21.721333 -12.492315 1.770266 -44.406911 -23.884826 12.415238 42.555089 -74.379957 -27.250765 34.303239 -3.584577 -4.703900 27.260952 15.460775 6.276702 57.418001 24.066417 18.209331 -9.981965 65.560684 -2.468316 -35.090508 8.857629 -22.910897 
